<?xml version="1.0" encoding="utf-8"?>
<!-- Generator: Adobe Illustrator 28.4.1, SVG Export Plug-In . SVG Version: 6.00 Build 0)  -->
<svg version="1.1" id="Calque_1" xmlns="http://www.w3.org/2000/svg" xmlns:xlink="http://www.w3.org/1999/xlink" x="0px" y="0px"
	 viewBox="0 0 832.2 330.4" style="enable-background:new 0 0 832.2 330.4;" xml:space="preserve">
<style type="text/css">
	.st0{fill:#FFFFFF;}
</style>
<g>
	<g>
		<path class="st0" d="M-95.9,689.5c0-341.3,0-682.7,0-1024c341.3,0,682.7,0,1024,0c0,341.3,0,682.7,0,1024
			C586.8,689.5,245.5,689.5-95.9,689.5z M73.4,181.2c-17.6,35.1-35.2,70.2-53.2,106.2c2.3-1.1,3.9-1.9,5.4-2.7
			c15.3-8.6,30.7-17.2,46-25.8c37.8-21.2,75.5-42.3,113.2-63.6c6.7-3.8,12.9-8.5,19.3-12.8c-0.2-0.3-0.3-0.6-0.5-0.9
			c-37.9,9.6-75.8,19.1-114.3,28.8c9.7-12.4,19.1-24.5,28.6-36.4c1-1.3,3-1.8,4.6-2.6c18.3-8.2,36.6-16.2,54.8-24.5
			c3.6-1.6,6.7-4.3,10-6.5c-0.1-0.4-0.3-0.7-0.4-1.1c-28.5,0-57,0-86.2,0c6.1-9.2,11.9-17.6,17.4-26.3c1.7-2.7,3.5-3.7,6.8-3.7
			c22.8,0.2,45.7,0.2,68.5-0.1c2.5,0,6.2-1.6,7.4-3.6c7.2-11.8,13.8-24,20.7-36.3c-1.3-0.3-1.6-0.4-1.9-0.4c-46,0.1-92,0.3-138,0.4
			c-3.3,0-4.5,1.3-5.7,4.1C62.7,103.3,49.3,133,36,162.8c-2.9,6.4-5.6,12.9-8.8,20.4C43.2,182.5,58.1,181.8,73.4,181.2z
			 M797.1,173.5c0.3,0,0.6,0,1,0c0-10.7,0.4-21.3-0.1-32c-0.6-13.2-4-25.5-13.1-35.7c-13.6-15.2-31.4-15.7-49.7-13.8
			c-8.9,1-16.8,4.8-23.4,11.1c-11.8,11.1-15.3,25.3-15.7,40.6c-0.4,16.8-0.3,33.7,0,50.5c0.1,7.6,0.7,15.3,2,22.8
			c3.4,18.6,13.9,31.5,32.7,35.9c7,1.6,14.5,1.8,21.8,1.6c24.5-0.7,41.7-16,44.2-40.6C798.3,200.5,797.1,187,797.1,173.5z
			 M347.2,206c-2.3,17.7,3.8,31.3,18.2,41.1c10.8,7.3,22.9,8.3,35.3,7.6c24.8-1.3,38.8-13.6,41.8-38c2.2-17.5-1.7-33.1-17.3-43.8
			c-7.3-5-14.7-9.7-21.8-15c-6.6-5-13.2-10.1-19.1-15.8c-4.3-4.1-4.5-12.3-1.6-17.2c3.2-5.4,9.6-7.7,17.6-6.3
			c5.7,1,9.6,5.2,10.8,11.6c0.5,2.7,0.9,5.5,1.4,8.2c9.5,0,18.8,0,28.6,0c0-3.4-0.1-6.5,0-9.6c0.6-14.4-6.5-24.3-18.5-31.1
			c-9.4-5.3-19.8-6.7-30.4-5.9c-24.5,1.8-38.4,11.6-41.7,35.1c-2.5,18,1.3,34.2,16.9,45.6c6.6,4.8,13.5,9.1,20.1,13.8
			c6.6,4.7,13.3,9.4,19.3,14.8c5.9,5.4,6.6,12,3.4,18.6c-3.2,6.4-9.1,9.2-17.6,8.2c-7.5-0.9-12.9-5.3-14.5-12.3
			c-0.7-3-1-6.1-1.5-9.4C366.9,206,357.3,206,347.2,206z M293.5,159.4c0-12.3,0-24,0-36.2c13.6,0,26.8,0,40,0c0-9.8,0-19,0-28.5
			c-24.3,0-48.2,0-72.2,0c0,52.7,0,105,0,157.6c24.7,0,49.1,0,73.5,0c0-9.4,0-18.4,0-28.1c-14.1,0-27.8,0-41.4,0
			c0-12.5,0-24.4,0-36.9c12.3,0,24.4,0,36.3,0c0-9.6,0-18.7,0-27.9C317.5,159.4,305.7,159.4,293.5,159.4z M452.2,123.6
			c9.7,0,19.3,0,29.1,0c0,43.3,0,85.9,0,128.7c10.7,0,21.1,0,32,0c0-42.9,0-85.7,0-128.9c10.4,0,20.3,0,30.4,0c0-9.9,0-19.3,0-28.7
			c-30.7,0-61.1,0-91.5,0C452.2,104.4,452.2,113.7,452.2,123.6z M614.6,94.6c0,52.9,0,105.3,0,157.6c24.6,0,49,0,73.1,0
			c0-9.8,0-19.2,0-28.9c-14,0-27.6,0-41.6,0c0-43.1,0-85.8,0-128.7C635.4,94.6,625.1,94.6,614.6,94.6z M590.8,252.4
			c0-52.9,0-105.3,0-157.7c-10.7,0-21.1,0-31.5,0c0,52.7,0,105.1,0,157.7C569.9,252.4,580.2,252.4,590.8,252.4z"/>
		<path d="M73.4,181.2c-15.3,0.7-30.2,1.4-46.2,2.1c3.2-7.5,6-14,8.8-20.4c13.3-29.8,26.6-59.5,39.8-89.4c1.2-2.7,2.4-4.1,5.7-4.1
			c46,0,92-0.2,138-0.4c0.3,0,0.6,0.1,1.9,0.4c-6.9,12.3-13.5,24.4-20.7,36.3c-1.2,2-4.8,3.6-7.4,3.6c-22.8,0.3-45.7,0.2-68.5,0.1
			c-3.3,0-5.1,1-6.8,3.7c-5.5,8.6-11.3,17.1-17.4,26.3c29.2,0,57.7,0,86.2,0c0.1,0.4,0.3,0.7,0.4,1.1c-3.3,2.2-6.4,4.9-10,6.5
			c-18.2,8.3-36.5,16.3-54.8,24.5c-1.6,0.7-3.6,1.3-4.6,2.6c-9.5,11.9-18.9,23.9-28.6,36.4c38.5-9.7,76.4-19.3,114.3-28.8
			c0.2,0.3,0.3,0.6,0.5,0.9c-6.4,4.3-12.6,9.1-19.3,12.8c-37.7,21.3-75.5,42.4-113.2,63.6c-15.3,8.6-30.7,17.2-46,25.8
			c-1.5,0.9-3.1,1.6-5.4,2.7C38.3,251.3,55.9,216.2,73.4,181.2z"/>
		<path d="M797.1,173.5c0,13.5,1.1,27-0.2,40.4c-2.5,24.6-19.7,39.8-44.2,40.6c-7.2,0.2-14.8,0.1-21.8-1.6
			c-18.8-4.4-29.3-17.3-32.7-35.9c-1.4-7.5-1.9-15.2-2-22.8c-0.3-16.8-0.4-33.7,0-50.5c0.4-15.3,3.9-29.6,15.7-40.6
			c6.7-6.2,14.5-10.1,23.4-11.1c18.3-2,36.1-1.5,49.7,13.8c9,10.2,12.5,22.5,13.1,35.7c0.5,10.6,0.1,21.3,0.1,32
			C797.8,173.5,797.5,173.5,797.1,173.5z M729.1,173C729.1,173,729.1,173,729.1,173c0.1,11.8-0.1,23.7,0.1,35.5
			c0.2,9.6,6.9,17.1,15.4,18c9.9,1,17.7-3.9,20.1-13.1c0.9-3.5,1.3-7.2,1.3-10.8c0.1-19.2,0.1-38.3,0-57.5c0-3.5-0.4-7-1-10.4
			c-1.7-8.5-7.7-14.5-15-15.2c-12.1-1.2-20.5,6.3-20.9,19.1C728.8,150,729.1,161.5,729.1,173z"/>
		<path d="M347.2,206c10.1,0,19.7,0,29.4,0c0.5,3.3,0.8,6.4,1.5,9.4c1.6,7,7,11.4,14.5,12.3c8.5,1,14.4-1.8,17.6-8.2
			c3.2-6.6,2.5-13.2-3.4-18.6c-6-5.4-12.7-10.1-19.3-14.8c-6.6-4.8-13.5-9.1-20.1-13.8c-15.7-11.4-19.4-27.6-16.9-45.6
			c3.2-23.5,17.2-33.2,41.7-35.1c10.6-0.8,20.9,0.6,30.4,5.9c12,6.8,19.2,16.7,18.5,31.1c-0.1,3.1,0,6.2,0,9.6c-9.8,0-19.1,0-28.6,0
			c-0.5-2.7-0.9-5.4-1.4-8.2c-1.2-6.3-5.1-10.5-10.8-11.6c-8-1.4-14.4,0.8-17.6,6.3c-2.9,5-2.7,13.1,1.6,17.2
			c6,5.7,12.5,10.9,19.1,15.8c7,5.3,14.5,10,21.8,15c15.6,10.7,19.5,26.3,17.3,43.8c-3,24.4-17,36.7-41.8,38
			c-12.5,0.7-24.6-0.3-35.3-7.6C351,237.2,344.9,223.7,347.2,206z"/>
		<path d="M293.5,159.4c12.2,0,24,0,36.2,0c0,9.3,0,18.3,0,27.9c-12,0-24,0-36.3,0c0,12.5,0,24.4,0,36.9c13.6,0,27.3,0,41.4,0
			c0,9.6,0,18.7,0,28.1c-24.4,0-48.8,0-73.5,0c0-52.5,0-104.9,0-157.6c24,0,47.9,0,72.2,0c0,9.4,0,18.7,0,28.5c-13.2,0-26.4,0-40,0
			C293.5,135.4,293.5,147.1,293.5,159.4z"/>
		<path d="M452.2,123.6c0-9.9,0-19.2,0-28.9c30.4,0,60.8,0,91.5,0c0,9.4,0,18.8,0,28.7c-10.1,0-20,0-30.4,0c0,43.2,0,85.9,0,128.9
			c-10.9,0-21.3,0-32,0c0-42.8,0-85.4,0-128.7C471.4,123.6,461.9,123.6,452.2,123.6z"/>
		<path d="M614.6,94.6c10.5,0,20.8,0,31.5,0c0,42.9,0,85.6,0,128.7c14,0,27.6,0,41.6,0c0,9.8,0,19.1,0,28.9c-24.2,0-48.5,0-73.1,0
			C614.6,199.8,614.6,147.5,614.6,94.6z"/>
		<path d="M590.8,252.4c-10.6,0-20.9,0-31.5,0c0-52.6,0-105,0-157.7c10.4,0,20.8,0,31.5,0C590.8,147.1,590.8,199.5,590.8,252.4z"/>
		<path class="st0" d="M729.1,173c0-11.5-0.2-23,0.1-34.5c0.3-12.8,8.8-20.3,20.9-19.1c7.3,0.7,13.3,6.6,15,15.2
			c0.7,3.4,1,6.9,1,10.4c0.1,19.2,0.1,38.3,0,57.5c0,3.6-0.4,7.4-1.3,10.8c-2.4,9.2-10.2,14.2-20.1,13.1c-8.6-0.9-15.3-8.4-15.4-18
			C729,196.6,729.1,184.8,729.1,173C729.1,173,729.1,173,729.1,173z"/>
	</g>
</g>
</svg>
