<?xml version="1.0" encoding="utf-8"?>
<!-- Generator: Adobe Illustrator 28.4.1, SVG Export Plug-In . SVG Version: 6.00 Build 0)  -->
<svg version="1.1" id="Calque_1" xmlns="http://www.w3.org/2000/svg" xmlns:xlink="http://www.w3.org/1999/xlink" x="0px" y="0px"
	 viewBox="0 0 75.1 102.8" style="enable-background:new 0 0 75.1 102.8;" xml:space="preserve">
<style type="text/css">
	.st0{font-family:'MyriadPro-Regular';}
	.st1{font-size:12px;}
	.st2{font-size:7.9413px;}
</style>
<g>
	<g>
		<path d="M15.7,74.5c6.4-0.1,6.6-4.4,6.5-8.9c-0.1-10.1-0.2-20.3-0.3-30.4c0-4.1-1.8-6.4-6.2-7.3c1.5-0.1,2.9-0.4,4.4-0.4
			c7.6,0.1,15.2-0.1,22.8,0.5c9.2,0.7,15,7.4,12.7,14.7c-0.9,3-3.6,5.6-5.6,8.7c-0.2-0.2,0.3,0.3,1,0.6c4.8,1.9,7.7,5.2,7.4,10.6
			c-0.3,5.3-3,9.3-7.9,11.1c-3.4,1.2-7.1,1.7-10.7,1.8c-7.6,0.3-15.3,0.1-22.9,0C16.6,75.5,16.4,75.1,15.7,74.5z M29.1,71.6
			c7.9,2.7,16.1,1.5,19.2-3.1c2.3-3.6,2.4-7.6,0-11.2c-3-4.7-11.9-6.5-19.2-4.1C29.1,59.1,29.1,65.2,29.1,71.6z M29.1,48.5
			c7.5,2.4,15.5,1.1,18-3.2c2.2-3.7,2.5-7.5-0.5-11.1c-3.6-4.3-11.2-5.6-17.5-2.9C29.1,36.9,29.1,42.5,29.1,48.5z"/>
		<path d="M48.8,6.1c-4.5,0.6-6.7,2.8-6.5,7.3c0.2,3.6,0,7.2,0,11.1c-2.7,0-4.7,0-7.6,0c0-3.5-0.2-6.8,0-10c0.4-4.8-1.3-7.7-6.5-8.4
			C35.1,6.1,42,6.1,48.8,6.1z"/>
		<path d="M35.1,47c0-5,0-9.2,0-14.1c2.3,0.2,4.4,0.5,6.9,0.7c0,4.1,0,7.7,0,12C40,46.1,37.8,46.5,35.1,47z"/>
	</g>
</g>
<text transform="matrix(1 0 0 1 10.4404 87.5313)" class="st0 st1">IMANE BAI</text>
<text transform="matrix(1 0 0 1 16.1698 95.5159)" class="st0 st2">COLLECTION</text>
<path d="M15.7,25.3c0.1,0,0.2,0,0.2,0c1.1-0.2,2.5-0.5,3.7-0.9c1.3-0.4,2.5-0.9,3.6-1.3c0.1,0-0.1,0.1-0.1,0.1
	c-2,1.1-4.6,2.1-6.8,2.7c-0.1,0-0.3,0.1-0.1,0.2c2.9,2.2,7.1,1,9.4-1.1c0.3-0.2,0.4-0.5,0.6-0.9c0.2-0.4,0.5-0.8,0.6-1.2
	c0.9-1.9,1.1-3.7,1.5-5.7c0.1-0.3,0-0.2-0.2,0c-0.9,1-2.3,1.9-3.6,2.1c-1,0.1-2,0.2-3,0.3c-1,0-2,0.2-2.9,0.8
	c-1.2,0.7-2.1,1.8-2.6,3.1c-0.2,0.5-0.4,1.2-0.4,1.6C15.6,25.2,15.6,25.3,15.7,25.3L15.7,25.3z"/>
<path d="M65.6,34.7c-0.1,0-0.2,0-0.2,0c-1.1-0.2-2.5-0.5-3.7-0.9c-1.3-0.4-2.5-0.9-3.6-1.3c-0.1,0,0.1,0.1,0.1,0.1
	c2,1.1,4.6,2.1,6.8,2.7c0.1,0,0.3,0.1,0.1,0.2c-2.9,2.2-7.1,1-9.4-1.1c-0.3-0.2-0.4-0.5-0.6-0.9c-0.2-0.4-0.5-0.8-0.6-1.2
	c-0.9-1.9-1.1-3.7-1.5-5.7c-0.1-0.3,0-0.2,0.2,0c0.9,1,2.3,1.9,3.6,2.1c1,0.1,2,0.2,3,0.3c1,0,2,0.2,2.9,0.8
	c1.2,0.7,2.1,1.8,2.6,3.1c0.2,0.5,0.4,1.2,0.4,1.6C65.7,34.6,65.6,34.7,65.6,34.7L65.6,34.7z"/>
<path d="M58.6,39.2"/>
<path d="M42.3,54.2h-7.6c0,0.5,0,2.5-1.5,4.3c-1.9,2.1-4.5,2-4.9,2c6.8,0,13.6,0,20.4,0c-0.4,0-3-0.2-4.8-2.3
	C42.5,56.6,42.4,54.7,42.3,54.2z"/>
</svg>
